<svg width="512" height="512" viewBox="0 0 512 512" fill="none" xmlns="http://www.w3.org/2000/svg">
<rect width="512" height="512" fill="#E2FAE8"/>
<g clip-path="url(#clip0_630_42)">
<path d="M39 64C182.22 64 325.44 64 473 64C473 157.06 473 250.12 473 346C329.78 346 186.56 346 39 346C39 252.94 39 159.88 39 64Z" fill="#E1F9E7"/>
<path d="M183.413 128.324C184.972 129.173 184.972 129.173 186.454 130.129C186.982 130.461 187.51 130.792 188.054 131.133C193.163 134.642 196.831 138.763 198.299 144.877C198.988 149.187 198.797 153.568 198.763 157.921C198.76 158.986 198.758 160.051 198.757 161.116C198.751 163.9 198.736 166.684 198.719 169.468C198.703 172.316 198.697 175.165 198.689 178.013C198.673 183.588 198.647 189.163 198.615 194.739C200.174 194.503 201.732 194.266 203.291 194.029C204.159 193.897 205.027 193.765 205.921 193.63C208.199 193.266 210.459 192.852 212.724 192.411C226.515 190.142 240.861 190.773 254.803 190.755C257.055 190.752 259.307 190.741 261.559 190.724C274.054 190.631 286.225 190.866 298.587 192.926C301.829 193.431 305.088 193.774 308.35 194.121C308.939 194.185 309.527 194.248 310.134 194.314C311.471 194.457 312.808 194.598 314.145 194.739C314.139 194.157 314.132 193.576 314.125 192.977C314.064 187.465 314.018 181.953 313.988 176.441C313.972 173.608 313.951 170.775 313.916 167.942C313.883 165.202 313.865 162.462 313.857 159.721C313.851 158.682 313.84 157.643 313.824 156.604C313.704 148.757 314.352 140.901 319.893 134.833C324.73 129.907 329.505 126.952 336.477 126.628C341.956 126.583 346.729 127.067 351.389 130.129C351.916 130.461 352.443 130.792 352.986 131.133C358.306 134.78 362.101 139.48 363.963 145.697C364.626 149.356 364.479 153.031 364.31 156.733C364.672 156.514 365.033 156.294 365.406 156.068C371.421 152.877 378.449 152.555 384.992 154.37C391.81 157.082 396.8 161.563 400.176 168.096C402.111 172.609 401.888 177.032 401.743 181.864C401.73 182.74 401.716 183.615 401.702 184.517C401.666 186.658 401.617 188.798 401.553 190.938C402.306 190.903 403.058 190.867 403.834 190.831C410.985 190.595 415.699 191.077 421.22 195.879C424.292 199.493 424.612 202.38 424.664 207.055C424.673 207.66 424.682 208.266 424.691 208.89C424.705 210.17 424.715 211.45 424.721 212.731C424.735 214.675 424.783 216.617 424.831 218.56C424.977 229.82 424.977 229.82 421.076 233.972C414.594 239.294 409.867 239.922 401.553 239.585C401.565 240.014 401.577 240.442 401.59 240.884C401.638 242.858 401.667 244.832 401.696 246.806C401.725 247.817 401.725 247.817 401.754 248.849C401.835 256.23 399.548 261.392 394.713 266.949C390.286 271.376 384.176 274.009 377.944 274.17C372.75 273.94 367.902 272.891 363.55 269.989C363.585 270.669 363.62 271.349 363.657 272.05C363.905 280.378 362.787 285.736 357.469 292.222C351.91 297.945 346.052 300.814 338.088 301.011C331.903 300.906 327.24 299.18 322.506 295.073C314.972 287.049 313.81 278.899 313.756 268.226C313.744 267.197 313.73 266.168 313.715 265.139C313.679 262.458 313.656 259.776 313.636 257.095C313.614 254.348 313.578 251.601 313.544 248.855C313.479 243.485 313.428 238.114 313.385 232.744C305.929 231.311 298.472 229.979 290.963 228.848C290.127 228.72 289.29 228.592 288.428 228.459C286.107 228.106 283.787 227.754 281.462 227.423C280.549 227.288 279.635 227.153 278.693 227.013C274.655 226.519 270.616 226.511 266.552 226.482C265.702 226.475 264.851 226.467 263.975 226.46C261.222 226.441 258.469 226.431 255.715 226.426C254.78 226.423 253.846 226.421 252.883 226.418C241.311 226.408 229.865 226.625 218.377 228.088C217.855 228.154 217.333 228.221 216.795 228.289C212.692 228.826 208.615 229.363 204.648 230.565C202.48 231.205 200.852 231.276 198.615 231.224C198.62 231.826 198.625 232.428 198.63 233.048C198.676 238.751 198.711 244.453 198.733 250.156C198.745 253.087 198.761 256.017 198.787 258.948C198.812 261.782 198.825 264.616 198.831 267.45C198.835 268.526 198.843 269.601 198.856 270.677C198.942 278.5 198.883 286.155 193.342 292.222C187.845 297.825 182.053 300.794 174.197 300.916C167.841 300.794 163.339 298.887 158.521 294.835C157.957 294.161 157.392 293.487 156.811 292.792C156.438 292.382 156.064 291.971 155.68 291.548C150.782 285.751 148.62 278.276 149.21 270.749C147.958 271.111 146.708 271.475 145.457 271.842C144.761 272.045 144.064 272.248 143.346 272.457C141.655 272.87 141.655 272.87 140.849 273.79C133.479 274.477 126.647 273.908 120.675 269.238C116.34 265.144 112.18 259.981 111.88 253.753C111.884 253.065 111.888 252.376 111.893 251.666C111.895 250.919 111.897 250.172 111.9 249.402C111.906 248.624 111.913 247.846 111.919 247.043C111.923 246.256 111.926 245.469 111.93 244.658C111.939 242.713 111.951 240.769 111.967 238.825C111.324 238.842 110.681 238.86 110.019 238.878C98.2833 239.065 98.2833 239.065 93.9151 235.689C88.9879 229.393 88.6829 223.964 88.7683 216.257C88.7846 214.505 88.7684 212.755 88.749 211.004C88.7359 204.518 88.7464 199.002 93.5855 194.1C94.2424 193.687 94.2424 193.687 94.9127 193.266C95.3526 192.977 95.7925 192.688 96.2457 192.39C99.4378 190.664 102.512 190.851 106.029 190.891C106.598 190.894 107.168 190.897 107.755 190.901C109.159 190.91 110.563 190.923 111.967 190.938C111.951 190.402 111.935 189.866 111.918 189.314C111.855 186.847 111.816 184.38 111.777 181.912C111.751 181.069 111.726 180.226 111.7 179.358C111.622 172.77 112.66 167.1 116.812 161.816C122.178 156.322 126.609 153.615 134.294 153.408C139.327 153.519 143.934 154.475 148.45 156.733C148.415 156.172 148.38 155.61 148.343 155.032C148.064 147.191 149.485 141.339 154.531 135.213C162.182 127.411 172.952 124.06 183.413 128.324Z" fill="#5BCD67"/>
<path d="M183.413 128.324C184.972 129.173 184.972 129.173 186.454 130.129C186.982 130.461 187.51 130.792 188.054 131.133C193.336 134.76 196.786 138.853 198.297 145.139C198.825 147.989 198.813 150.792 198.787 153.682C198.788 154.336 198.788 154.989 198.788 155.662C198.787 157.801 198.775 159.939 198.763 162.078C198.76 163.569 198.758 165.06 198.757 166.551C198.751 170.459 198.736 174.368 198.719 178.277C198.703 182.271 198.697 186.266 198.689 190.261C198.673 198.088 198.647 205.915 198.615 213.741C199.416 213.58 199.416 213.58 200.233 213.416C218.286 209.833 235.615 208.135 254.005 208.23C254.802 208.233 255.6 208.235 256.421 208.237C272.323 208.286 287.75 209.233 303.433 211.95C305.907 212.371 308.387 212.747 310.868 213.124C312.214 213.329 313.559 213.535 314.905 213.741C314.927 216.512 314.941 219.284 314.953 222.055C314.959 222.846 314.966 223.637 314.972 224.453C314.976 225.581 314.976 225.581 314.98 226.731C314.986 227.776 314.986 227.776 314.992 228.842C314.905 230.464 314.525 232.744 313.765 233.504C306.545 231.604 301.797 230.852 295.144 229.323C282.602 228.284 268.468 226.36 255.287 226.378C254.37 226.377 253.452 226.377 252.507 226.376C228.336 226.192 228.336 226.192 204.648 230.565C202.48 231.205 200.852 231.276 198.615 231.224C198.62 231.826 198.625 232.428 198.63 233.048C198.676 238.751 198.711 244.453 198.733 250.156C198.745 253.087 198.761 256.017 198.787 258.948C198.812 261.782 198.825 264.616 198.831 267.45C198.835 268.526 198.843 269.601 198.856 270.677C198.942 278.5 198.883 286.155 193.342 292.222C187.845 297.825 182.053 300.794 174.197 300.916C167.841 300.794 163.339 298.887 158.521 294.835C157.957 294.161 157.392 293.487 156.811 292.792C156.438 292.382 156.064 291.971 155.68 291.548C150.782 285.751 148.62 278.276 149.21 270.749C147.958 271.111 146.708 271.475 145.457 271.842C144.761 272.045 144.064 272.248 143.346 272.457C141.655 272.87 141.655 272.87 140.849 273.79C133.479 274.477 126.647 273.908 120.675 269.238C116.34 265.144 112.18 259.981 111.88 253.753C111.884 253.065 111.888 252.376 111.893 251.666C111.895 250.919 111.897 250.172 111.9 249.402C111.906 248.624 111.913 247.846 111.919 247.043C111.923 246.256 111.926 245.469 111.93 244.658C111.939 242.713 111.951 240.769 111.967 238.825C111.324 238.842 110.681 238.86 110.019 238.878C98.2833 239.065 98.2833 239.065 93.9151 235.689C88.9879 229.393 88.6829 223.964 88.7683 216.257C88.7846 214.505 88.7684 212.755 88.749 211.004C88.7359 204.518 88.7464 199.002 93.5855 194.1C94.2424 193.687 94.2424 193.687 94.9127 193.266C95.3526 192.977 95.7925 192.688 96.2457 192.39C99.4378 190.664 102.512 190.851 106.029 190.891C106.598 190.894 107.168 190.897 107.755 190.901C109.159 190.91 110.563 190.923 111.967 190.938C111.951 190.402 111.935 189.866 111.918 189.314C111.855 186.847 111.816 184.38 111.777 181.912C111.751 181.069 111.726 180.226 111.7 179.358C111.622 172.77 112.66 167.1 116.812 161.816C122.178 156.322 126.609 153.615 134.294 153.408C139.327 153.519 143.934 154.475 148.45 156.733C148.415 156.172 148.38 155.61 148.343 155.032C148.064 147.191 149.485 141.339 154.531 135.213C162.182 127.411 172.952 124.06 183.413 128.324Z" fill="#0F5D4A"/>
<path d="M377.089 153.36C378.483 153.385 378.483 153.385 379.906 153.411C387.229 154.191 392.466 157.87 397.266 163.23C401.377 169.376 401.963 174.537 401.743 181.864C401.73 182.74 401.716 183.615 401.702 184.517C401.666 186.658 401.617 188.798 401.553 190.938C402.306 190.903 403.058 190.867 403.834 190.831C410.985 190.595 415.699 191.077 421.22 195.879C424.292 199.493 424.612 202.38 424.664 207.055C424.673 207.66 424.682 208.266 424.691 208.89C424.705 210.17 424.715 211.45 424.721 212.731C424.735 214.675 424.783 216.617 424.831 218.56C424.978 229.82 424.978 229.82 421.076 233.972C414.594 239.294 409.867 239.922 401.553 239.585C401.565 240.014 401.577 240.442 401.59 240.884C401.638 242.858 401.667 244.832 401.696 246.806C401.715 247.48 401.734 248.154 401.754 248.849C401.835 256.23 399.548 261.392 394.713 266.949C390.286 271.376 384.176 274.009 377.944 274.17C372.342 273.915 368.067 273.081 363.55 269.609C362.41 268.089 361.568 267.057 361.586 264.36C361.585 263.865 361.583 263.369 361.581 262.859C361.58 261.199 361.606 259.541 361.632 257.881C361.637 256.697 361.64 255.513 361.642 254.329C361.652 251.125 361.685 247.922 361.723 244.719C361.759 241.387 361.773 238.055 361.791 234.723C361.835 227.143 361.915 219.565 362.006 211.986C362.029 209.967 362.053 207.949 362.076 205.93C362.261 189.784 362.497 173.638 362.79 157.493C364.115 156.863 365.444 156.24 366.773 155.62C367.513 155.272 368.252 154.924 369.014 154.566C371.926 153.376 373.949 153.257 377.089 153.36Z" fill="#8DEE98"/>
<path d="M149.97 157.493C150.703 170.456 150.843 183.384 150.831 196.366C150.831 198.454 150.833 200.542 150.833 202.63C150.835 206.971 150.833 211.313 150.829 215.654C150.825 220.651 150.827 225.649 150.831 230.646C150.834 234.975 150.835 239.304 150.833 243.632C150.832 246.202 150.831 248.771 150.834 251.34C150.836 254.197 150.833 257.053 150.829 259.91C150.83 260.744 150.827 262.288 150.829 263.148C149.97 269.238 149.796 265.942 149.21 270.749C148.959 270.749 149.469 276.83 149.21 276.83C149.21 274.824 149.21 272.817 149.21 270.749C147.958 271.111 147.04 271.903 145.79 272.27C145.093 272.472 144.227 272.821 143.51 273.03C143.51 273.03 142.181 273.666 140.849 273.79C133.479 274.477 126.647 273.908 120.675 269.238C116.34 265.144 112.18 259.981 111.88 253.753C111.884 253.065 111.888 252.376 111.893 251.666C111.895 250.919 111.897 250.172 111.9 249.402C111.906 248.624 111.913 247.846 111.919 247.043C111.923 246.256 111.926 245.469 111.93 244.658C111.939 242.713 111.951 240.769 111.967 238.825C111.324 238.842 110.681 238.86 110.019 238.878C98.2833 239.065 98.2833 239.065 93.9151 235.689C88.9879 229.393 88.6829 223.964 88.7683 216.257C88.7846 214.505 88.7684 212.755 88.749 211.004C88.7359 204.518 88.7464 199.002 93.5855 194.1C94.2424 193.687 94.2424 193.687 94.9127 193.266C95.3526 192.977 95.7925 192.688 96.2457 192.39C99.4378 190.664 102.512 190.851 106.029 190.89C106.598 190.894 107.168 190.897 107.755 190.901C109.159 190.91 110.563 190.923 111.967 190.938C111.951 190.402 111.935 189.866 111.918 189.314C111.855 186.847 111.816 184.38 111.777 181.912C111.751 181.069 111.726 180.226 111.7 179.358C111.622 172.77 112.66 167.1 116.812 161.816C126.448 151.951 137.883 151.365 149.97 157.493Z" fill="#31AC58"/>
<path d="M400.793 190.938C415.539 190.938 415.539 190.938 421.22 195.879C424.292 199.493 424.612 202.38 424.664 207.055C424.673 207.66 424.682 208.266 424.691 208.89C424.705 210.17 424.715 211.45 424.721 212.731C424.735 214.675 424.783 216.617 424.831 218.56C424.977 229.82 424.977 229.82 421.076 233.972C420.653 234.32 420.231 234.667 419.795 235.024C419.085 235.613 419.085 235.613 418.36 236.213C412.442 240.239 409.197 239.965 401.173 239.965C401.173 224.162 400.793 207.219 400.793 190.938Z" fill="#2DA456"/>
<path d="M112.727 191.698C112.727 207.25 112.727 222.802 112.727 238.825C97.9725 238.825 97.9725 238.825 93.9151 235.689C88.9879 229.393 88.6829 223.964 88.7683 216.257C88.7846 214.505 88.7684 212.755 88.749 211.004C88.736 204.141 88.9623 198.827 94.0101 193.646C99.4533 190.406 106.856 191.698 112.727 191.698Z" fill="#105E4A"/>
<path d="M161.276 130.604C161.809 130.698 162.342 130.793 162.891 130.889C161.625 132.156 160.358 133.423 159.091 134.69C158.103 135.748 158.103 135.748 157.096 136.828C155.291 138.491 155.291 138.491 153.01 138.491C154.431 134.796 157.244 131.13 161.276 130.604Z" fill="#1F5E4C"/>
<path d="M184.933 130.129C188.304 131.189 190.158 132.87 192.534 135.45C189.548 135.45 188.683 134.297 186.454 132.41C185.952 132.159 185.45 131.908 184.933 131.65C184.933 131.148 184.933 130.646 184.933 130.129Z" fill="#165643"/>
<path d="M317.946 287.472C320.662 289.509 322.749 291.596 324.786 294.313C323.011 294.181 321.98 293.779 320.698 292.54C317.946 289.317 317.946 289.317 317.946 287.472Z" fill="#52C95D"/>
<path d="M195.574 139.251C197.859 141.536 197.547 143.677 197.855 146.852C197.353 146.852 196.851 146.852 196.334 146.852C195.113 144.408 195.531 141.96 195.574 139.251Z" fill="#2F6756"/>
<path d="M93.725 235.024C96.0987 235.394 98.2823 235.783 100.566 236.544C100.566 237.046 100.566 237.548 100.566 238.065C96.3561 237.597 96.3561 237.597 94.5801 236.117C94.2979 235.756 94.0158 235.396 93.725 235.024Z" fill="#296451"/>
<path d="M316.426 140.011C317.233 141.388 317.233 141.388 317.946 143.051C317.695 143.804 317.444 144.556 317.186 145.332C316.684 145.332 316.182 145.332 315.665 145.332C315.415 146.084 315.164 146.837 314.905 147.612C315.57 141.721 315.57 141.721 316.426 140.011Z" fill="#69D172"/>
</g>
<path d="M67.3535 362V353.817L69.8145 353.346V341.677L67.3535 341.205V333.125H82.1396L88.3535 344.158L94.5059 333.125H109.292V341.205L106.831 341.677V353.346L109.292 353.817V362H94.5059V347.87L88.3535 358.288L82.1396 347.87V362H67.3535ZM120.981 362V353.858L123.442 353.243L114.973 341.656L111.855 341.205V333.125H128.323V341.205L126.396 341.656L130.312 347.583L134.209 341.656L132.281 341.205V333.125H148.729V341.205L145.632 341.656L137.162 353.243L139.644 353.858V362H120.981ZM166.96 362.369C163.569 362.369 160.623 361.815 158.121 360.708C155.633 359.587 153.712 357.905 152.358 355.663C151.005 353.407 150.328 350.577 150.328 347.173C150.328 343.769 150.991 340.973 152.317 338.785C153.657 336.598 155.558 334.978 158.019 333.925C160.493 332.872 163.426 332.346 166.816 332.346C169.264 332.346 171.465 332.564 173.42 333.002C175.389 333.426 177.18 334 178.793 334.725V343.646H172.989C172.47 342.921 171.834 342.299 171.082 341.779C170.344 341.26 169.428 341 168.334 341C166.611 341 165.237 341.595 164.212 342.784C163.2 343.96 162.694 345.423 162.694 347.173C162.694 349.292 163.234 350.864 164.314 351.89C165.395 352.901 166.98 353.407 169.072 353.407C170.809 353.407 172.456 353.223 174.015 352.854C175.587 352.484 177.18 352.061 178.793 351.582V360.503C174.719 361.747 170.774 362.369 166.96 362.369ZM181.705 362V353.817L184.166 353.346V341.718L181.705 341.246V333.125H198.973V341.246L196.512 341.718V345.102H206.376V341.718L203.915 341.246V333.022H221.183V341.246L218.722 341.718V353.346L221.183 353.817V362H203.915V353.817L206.376 353.346V349.921H196.512V353.346L198.973 353.817V362H181.705ZM223.664 362V352.484L226.043 352.013L231.724 333.125H247.638L253.359 352.013L255.718 352.484V362H244.746L243.721 357.14H235.661L234.636 362H223.664ZM236.912 350.659H242.47L239.681 339.318L236.912 350.659ZM258.281 362V353.817L260.742 353.346V341.677L258.281 341.205V333.125H273.067L279.281 344.158L285.434 333.125H300.22V341.205L297.759 341.677V353.346L300.22 353.817V362H285.434V347.87L279.281 358.288L273.067 347.87V362H258.281ZM303.029 362V353.817L305.49 353.346V341.677L303.029 341.205V333.125H319.825C321.862 333.125 323.797 333.214 325.629 333.392C327.461 333.556 329.088 333.925 330.51 334.499C331.932 335.073 333.053 335.948 333.873 337.124C334.693 338.3 335.104 339.893 335.104 341.902C335.104 344.021 334.618 345.689 333.647 346.906C332.677 348.109 331.364 348.998 329.71 349.572C328.069 350.133 326.217 350.488 324.152 350.639C322.102 350.789 319.996 350.864 317.836 350.864V353.346L320.297 353.817V362H303.029ZM317.836 345.676C319.449 345.676 320.673 345.423 321.507 344.917C322.354 344.411 322.778 343.345 322.778 341.718C322.778 340.159 322.341 339.161 321.466 338.724C320.591 338.272 319.381 338.047 317.836 338.047V345.676ZM336.949 362V353.817L339.41 353.346V341.677L336.949 341.205V333.125H354.217V341.205L351.756 341.677V353.346L354.217 353.817V362H336.949ZM373.31 362.369C369.81 362.369 366.768 361.836 364.184 360.77C361.6 359.703 359.597 358.049 358.175 355.807C356.767 353.564 356.062 350.687 356.062 347.173C356.062 343.728 356.787 340.918 358.236 338.744C359.686 336.557 361.702 334.943 364.286 333.904C366.884 332.865 369.892 332.346 373.31 332.346C376.728 332.346 379.735 332.865 382.333 333.904C384.931 334.943 386.954 336.557 388.403 338.744C389.866 340.918 390.598 343.728 390.598 347.173C390.598 350.687 389.894 353.564 388.485 355.807C387.077 358.049 385.081 359.703 382.497 360.77C379.913 361.836 376.851 362.369 373.31 362.369ZM373.31 353.428C375.224 353.428 376.529 352.854 377.227 351.705C377.924 350.557 378.272 349.046 378.272 347.173C378.272 345.3 377.917 343.816 377.206 342.723C376.509 341.629 375.21 341.082 373.31 341.082C371.45 341.082 370.165 341.615 369.454 342.682C368.757 343.748 368.408 345.211 368.408 347.07C368.408 348.971 368.736 350.509 369.393 351.685C370.062 352.847 371.368 353.428 373.31 353.428ZM392.32 362V353.817L394.781 353.346V341.677L392.32 341.205V333.125H407.127L416.991 348.69V341.718L414.53 341.205V333.125H426.855V341.205L424.395 341.677V353.346L426.855 353.817V362H412.049L402.185 346.845V353.346L404.666 353.797V362H392.32ZM441.56 362.369C439.099 362.369 436.938 362.205 435.079 361.877C433.233 361.549 431.538 360.995 429.993 360.216V353.1H435.797C436.248 353.811 436.815 354.426 437.499 354.945C438.196 355.465 439.044 355.725 440.042 355.725C441.013 355.725 441.662 355.417 441.99 354.802C442.332 354.187 442.503 353.359 442.503 352.32C440.808 352.17 439.16 351.917 437.561 351.562C435.961 351.206 434.525 350.673 433.254 349.962C431.996 349.251 430.991 348.294 430.239 347.091C429.501 345.888 429.132 344.363 429.132 342.518C429.132 339.975 429.692 337.965 430.813 336.488C431.948 334.998 433.5 333.938 435.469 333.31C437.451 332.667 439.7 332.346 442.216 332.346C444.608 332.346 446.741 332.564 448.614 333.002C450.501 333.426 452.23 334 453.803 334.725V341.902H447.589C447.206 341.164 446.707 340.508 446.092 339.934C445.477 339.359 444.697 339.072 443.754 339.072C442.756 339.072 442.079 339.441 441.724 340.18C441.368 340.918 441.19 341.82 441.19 342.887C443.118 342.955 444.909 343.153 446.563 343.481C448.218 343.796 449.667 344.322 450.911 345.061C452.155 345.785 453.119 346.783 453.803 348.055C454.5 349.326 454.849 350.946 454.849 352.915C454.849 355.39 454.261 357.311 453.085 358.678C451.909 360.045 450.316 361.002 448.307 361.549C446.311 362.096 444.062 362.369 441.56 362.369Z" fill="#0F5E4B"/>
<defs>
<clipPath id="clip0_630_42">
<rect width="434" height="282" fill="white" transform="translate(39 64)"/>
</clipPath>
</defs>
</svg>
