<svg width="512" height="512" viewBox="0 0 512 512" fill="none" xmlns="http://www.w3.org/2000/svg">
<rect width="512" height="512" fill="#E2FAE8"/>
<g clip-path="url(#clip0_638_12)">
<path d="M-59.3427 51C148.867 51 357.077 51 571.596 51C571.596 186.3 571.596 321.6 571.596 461C363.386 461 155.176 461 -59.3427 461C-59.3427 325.7 -59.3427 190.4 -59.3427 51Z" fill="#E1F9E7"/>
<path d="M150.602 144.521C152.868 145.756 152.868 145.756 155.022 147.146C155.789 147.627 156.557 148.109 157.348 148.605C164.776 153.706 170.109 159.698 172.242 168.586C173.244 174.853 172.967 181.223 172.917 187.552C172.913 189.1 172.91 190.648 172.907 192.197C172.899 196.244 172.877 200.292 172.853 204.34C172.83 208.481 172.82 212.622 172.809 216.764C172.785 224.87 172.748 232.975 172.701 241.081C174.967 240.738 177.233 240.394 179.499 240.049C180.761 239.858 182.023 239.666 183.323 239.469C186.635 238.939 189.921 238.338 193.212 237.696C213.262 234.397 234.117 235.315 254.387 235.29C257.661 235.285 260.934 235.27 264.208 235.244C282.373 235.108 300.066 235.45 318.038 238.445C322.751 239.18 327.489 239.679 332.231 240.183C333.087 240.275 333.943 240.368 334.825 240.463C336.769 240.672 338.713 240.877 340.657 241.081C340.647 240.236 340.637 239.39 340.627 238.52C340.538 230.506 340.471 222.492 340.428 214.478C340.405 210.359 340.374 206.24 340.323 202.121C340.275 198.137 340.249 194.154 340.237 190.169C340.229 188.659 340.213 187.148 340.189 185.637C340.015 174.229 340.958 162.806 349.013 153.984C356.045 146.822 362.986 142.525 373.122 142.055C381.087 141.99 388.026 142.693 394.8 147.146C395.567 147.627 396.333 148.109 397.122 148.605C404.857 153.907 410.373 160.74 413.08 169.779C414.045 175.099 413.831 180.443 413.585 185.825C414.11 185.506 414.636 185.187 415.177 184.858C423.923 180.219 434.139 179.75 443.652 182.389C453.564 186.332 460.817 192.848 465.726 202.346C468.538 208.906 468.215 215.338 468.005 222.363C467.985 223.636 467.965 224.909 467.944 226.22C467.892 229.333 467.82 232.444 467.728 235.555C468.822 235.504 469.916 235.453 471.043 235.4C481.44 235.056 488.293 235.758 496.319 242.739C500.785 247.993 501.251 252.191 501.326 258.987C501.339 259.868 501.352 260.748 501.365 261.655C501.385 263.517 501.4 265.378 501.408 267.24C501.43 270.066 501.498 272.889 501.568 275.715C501.782 292.086 501.782 292.086 496.11 298.123C486.687 305.86 479.814 306.774 467.728 306.283C467.746 306.906 467.763 307.53 467.781 308.172C467.851 311.042 467.893 313.911 467.936 316.782C467.977 318.252 467.977 318.252 468.02 319.752C468.138 330.483 464.813 337.989 457.784 346.067C451.348 352.504 442.465 356.333 433.405 356.566C425.854 356.232 418.807 354.707 412.48 350.488C412.531 351.477 412.582 352.465 412.635 353.484C412.997 365.592 411.371 373.383 403.64 382.813C395.558 391.133 387.042 395.304 375.463 395.591C366.472 395.438 359.694 392.928 352.811 386.957C341.859 375.291 340.169 363.442 340.091 347.924C340.073 346.428 340.053 344.932 340.031 343.437C339.979 339.538 339.946 335.64 339.917 331.741C339.884 327.747 339.832 323.754 339.783 319.76C339.688 311.953 339.613 304.145 339.552 296.337C328.712 294.253 317.872 292.318 306.955 290.673C305.739 290.487 304.522 290.3 303.269 290.108C299.895 289.594 296.522 289.082 293.143 288.601C291.815 288.404 290.486 288.208 289.117 288.005C283.246 287.287 277.375 287.275 271.467 287.233C270.23 287.222 268.994 287.211 267.721 287.2C263.718 287.173 259.715 287.159 255.712 287.151C254.353 287.147 252.994 287.143 251.594 287.14C234.771 287.125 218.132 287.44 201.43 289.568C200.672 289.664 199.913 289.76 199.131 289.86C193.167 290.64 187.24 291.421 181.472 293.168C178.32 294.099 175.953 294.203 172.701 294.127C172.709 295.002 172.716 295.877 172.723 296.779C172.79 305.07 172.84 313.361 172.873 321.652C172.89 325.913 172.913 330.174 172.951 334.436C172.988 338.556 173.007 342.676 173.016 346.796C173.022 348.36 173.034 349.924 173.052 351.488C173.177 362.861 173.091 373.991 165.035 382.813C157.044 390.959 148.624 395.275 137.204 395.453C127.962 395.275 121.418 392.502 114.414 386.612C113.594 385.631 112.773 384.651 111.928 383.642C111.385 383.045 110.842 382.448 110.283 381.833C103.164 373.405 100.02 362.535 100.878 351.593C99.0582 352.118 97.2399 352.649 95.4223 353.182C94.4095 353.477 93.3968 353.771 92.3534 354.075C89.8944 354.677 89.8944 354.677 88.7234 356.014C78.0088 357.013 68.0769 356.185 59.3942 349.396C53.0927 343.443 47.0445 335.936 46.6091 326.882C46.6148 325.881 46.6206 324.88 46.6266 323.848C46.6301 322.762 46.6337 321.676 46.6374 320.557C46.6466 319.425 46.6559 318.293 46.6654 317.127C46.6704 315.982 46.6754 314.838 46.6805 313.658C46.6936 310.832 46.7117 308.005 46.7345 305.178C45.8001 305.204 44.8657 305.229 43.903 305.256C26.8418 305.527 26.8418 305.527 20.4914 300.619C13.3285 291.465 12.885 283.571 13.0091 272.366C13.0328 269.819 13.0093 267.276 12.9811 264.729C12.9621 255.3 12.9774 247.279 20.0123 240.153C20.9674 239.552 20.9674 239.552 21.9417 238.94C22.5813 238.519 23.2208 238.099 23.8797 237.666C28.5203 235.157 32.989 235.428 38.1019 235.486C38.9302 235.491 39.7585 235.496 40.6118 235.501C42.6528 235.514 44.6936 235.534 46.7345 235.555C46.7113 234.776 46.6882 233.997 46.6644 233.194C46.5715 229.607 46.5147 226.02 46.4583 222.432C46.4212 221.207 46.3842 219.982 46.346 218.719C46.2334 209.141 47.7421 200.897 53.7787 193.215C61.5795 185.228 68.0211 181.292 79.193 180.99C86.5096 181.152 93.2071 182.541 99.7731 185.825C99.7218 185.009 99.6705 184.192 99.6177 183.351C99.2122 171.951 101.278 163.443 108.613 154.536C119.737 143.194 135.394 138.321 150.602 144.521Z" fill="#5BCD67"/>
<path d="M150.602 144.521C152.868 145.756 152.868 145.756 155.022 147.146C155.789 147.627 156.557 148.109 157.348 148.605C165.027 153.878 170.043 159.829 172.24 168.968C173.007 173.112 172.99 177.187 172.952 181.389C172.952 182.339 172.953 183.289 172.953 184.268C172.951 187.377 172.934 190.486 172.917 193.595C172.913 195.763 172.91 197.931 172.907 200.098C172.899 205.781 172.877 211.464 172.853 217.147C172.83 222.955 172.82 228.763 172.809 234.571C172.785 245.95 172.748 257.33 172.701 268.709C173.866 268.475 173.866 268.475 175.054 268.237C201.299 263.026 226.492 260.558 253.226 260.697C254.385 260.7 255.544 260.703 256.739 260.706C279.857 260.778 302.284 262.154 325.083 266.104C328.68 266.717 332.285 267.263 335.891 267.811C337.848 268.11 339.805 268.409 341.762 268.709C341.794 272.738 341.813 276.767 341.831 280.796C341.84 281.947 341.849 283.097 341.859 284.282C341.864 285.922 341.864 285.922 341.87 287.595C341.878 289.114 341.878 289.114 341.887 290.664C341.762 293.022 341.209 296.337 340.104 297.442C329.607 294.679 322.705 293.586 313.032 291.364C294.8 289.853 274.253 287.055 255.09 287.082C253.756 287.081 252.422 287.08 251.048 287.079C215.909 286.81 215.909 286.81 181.472 293.168C178.32 294.099 175.953 294.203 172.701 294.127C172.708 295.002 172.716 295.877 172.723 296.779C172.79 305.07 172.84 313.361 172.873 321.652C172.89 325.913 172.913 330.174 172.951 334.436C172.987 338.556 173.007 342.676 173.016 346.796C173.022 348.36 173.034 349.924 173.052 351.488C173.177 362.861 173.091 373.991 165.035 382.813C157.044 390.959 148.624 395.275 137.204 395.453C127.962 395.275 121.418 392.502 114.414 386.612C113.593 385.631 112.773 384.651 111.928 383.642C111.385 383.045 110.842 382.448 110.283 381.833C103.164 373.405 100.02 362.535 100.878 351.593C99.0582 352.118 97.2399 352.649 95.4222 353.182C94.4095 353.477 93.3968 353.771 92.3534 354.075C89.8944 354.677 89.8944 354.677 88.7234 356.014C78.0088 357.013 68.0769 356.185 59.3942 349.396C53.0927 343.443 47.0445 335.936 46.609 326.882C46.6148 325.881 46.6206 324.88 46.6266 323.848C46.6301 322.762 46.6337 321.676 46.6374 320.557C46.6466 319.425 46.6559 318.293 46.6654 317.127C46.6704 315.982 46.6754 314.838 46.6805 313.658C46.6936 310.832 46.7117 308.005 46.7345 305.178C45.8001 305.204 44.8657 305.229 43.903 305.256C26.8418 305.527 26.8418 305.527 20.4914 300.619C13.3285 291.465 12.885 283.571 13.0091 272.366C13.0328 269.819 13.0093 267.276 12.9811 264.729C12.9621 255.3 12.9774 247.279 20.0123 240.153C20.9674 239.552 20.9674 239.552 21.9417 238.94C22.5813 238.519 23.2208 238.099 23.8797 237.666C28.5203 235.157 32.9889 235.428 38.1019 235.486C38.9302 235.491 39.7585 235.496 40.6118 235.501C42.6528 235.514 44.6936 235.534 46.7345 235.555C46.7113 234.776 46.6882 233.997 46.6643 233.194C46.5715 229.607 46.5147 226.02 46.4582 222.432C46.4212 221.207 46.3842 219.982 46.346 218.719C46.2333 209.141 47.7421 200.897 53.7787 193.215C61.5795 185.228 68.0211 181.292 79.193 180.99C86.5096 181.152 93.2071 182.541 99.7731 185.825C99.7218 185.009 99.6705 184.192 99.6177 183.351C99.2121 171.951 101.278 163.443 108.613 154.536C119.737 143.194 135.394 138.321 150.602 144.521Z" fill="#0F5D4A"/>
<path d="M432.162 180.921C434.19 180.957 434.19 180.957 436.258 180.994C446.903 182.129 454.518 187.478 461.495 195.27C467.471 204.207 468.324 211.71 468.004 222.363C467.985 223.636 467.965 224.909 467.944 226.22C467.892 229.333 467.82 232.443 467.728 235.555C468.822 235.504 469.916 235.453 471.043 235.4C481.44 235.056 488.293 235.758 496.319 242.739C500.785 247.993 501.251 252.191 501.326 258.987C501.339 259.868 501.351 260.748 501.364 261.655C501.385 263.516 501.4 265.378 501.408 267.24C501.43 270.066 501.498 272.889 501.568 275.715C501.782 292.086 501.782 292.086 496.11 298.123C486.687 305.86 479.814 306.774 467.728 306.283C467.746 306.906 467.763 307.53 467.781 308.172C467.85 311.042 467.893 313.911 467.935 316.782C467.963 317.762 467.991 318.742 468.02 319.752C468.138 330.483 464.813 337.989 457.783 346.067C451.347 352.504 442.465 356.332 433.405 356.566C425.262 356.196 419.047 354.983 412.48 349.935C410.822 347.725 409.598 346.225 409.625 342.304C409.622 341.583 409.62 340.863 409.617 340.121C409.616 337.708 409.653 335.297 409.691 332.884C409.699 331.162 409.703 329.441 409.706 327.72C409.72 323.062 409.769 318.405 409.824 313.747C409.876 308.903 409.897 304.058 409.922 299.214C409.987 288.194 410.103 277.176 410.234 266.157C410.269 263.222 410.303 260.287 410.337 257.352C410.606 233.877 410.949 210.403 411.375 186.93C413.301 186.014 415.233 185.108 417.166 184.206C418.241 183.7 419.316 183.194 420.423 182.673C424.657 180.944 427.598 180.77 432.162 180.921Z" fill="#8DEE98"/>
<path d="M101.983 186.93C103.048 205.777 103.251 224.572 103.235 243.447C103.235 246.482 103.237 249.518 103.238 252.554C103.24 258.866 103.237 265.178 103.232 271.49C103.226 278.755 103.228 286.021 103.234 293.287C103.239 299.581 103.24 305.874 103.237 312.168C103.235 315.903 103.235 319.639 103.239 323.374C103.241 327.527 103.237 331.68 103.231 335.833C103.233 337.047 103.229 339.291 103.231 340.542C101.983 349.396 101.73 344.603 100.878 351.593C100.513 351.593 101.254 360.434 100.878 360.434C100.878 357.516 100.878 354.599 100.878 351.593C99.0582 352.118 97.7233 353.27 95.9057 353.803C94.8929 354.098 93.6342 354.605 92.5908 354.908C92.5908 354.908 90.6591 355.833 88.7234 356.013C78.0088 357.013 68.0769 356.185 59.3942 349.396C53.0927 343.443 47.0445 335.936 46.609 326.882C46.6148 325.881 46.6206 324.88 46.6266 323.848C46.6301 322.762 46.6337 321.676 46.6374 320.557C46.6466 319.425 46.6559 318.293 46.6654 317.127C46.6704 315.982 46.6754 314.838 46.6805 313.658C46.6936 310.832 46.7117 308.005 46.7345 305.178C45.8001 305.204 44.8657 305.229 43.903 305.256C26.8418 305.527 26.8418 305.527 20.4914 300.619C13.3285 291.465 12.885 283.571 13.0091 272.366C13.0328 269.819 13.0093 267.276 12.9811 264.729C12.9621 255.3 12.9774 247.279 20.0123 240.153C20.9674 239.552 20.9674 239.552 21.9417 238.94C22.5813 238.519 23.2208 238.099 23.8797 237.666C28.5203 235.157 32.989 235.428 38.1019 235.486C38.9302 235.491 39.7585 235.496 40.6118 235.501C42.6528 235.514 44.6936 235.534 46.7345 235.555C46.7113 234.776 46.6882 233.997 46.6644 233.194C46.5715 229.607 46.5147 226.02 46.4582 222.432C46.4212 221.207 46.3842 219.982 46.346 218.719C46.2333 209.141 47.7421 200.897 53.7787 193.215C67.7864 178.872 84.4111 178.02 101.983 186.93Z" fill="#31AC58"/>
<path d="M466.623 235.555C488.06 235.555 488.06 235.555 496.319 242.739C500.785 247.993 501.251 252.191 501.326 258.987C501.339 259.868 501.351 260.748 501.364 261.655C501.385 263.516 501.4 265.378 501.408 267.24C501.43 270.066 501.498 272.889 501.568 275.715C501.781 292.086 501.781 292.086 496.11 298.123C495.495 298.628 494.881 299.132 494.247 299.652C493.214 300.508 493.214 300.508 492.161 301.38C483.558 307.234 478.841 306.836 467.176 306.836C467.176 283.86 466.623 259.227 466.623 235.555Z" fill="#2DA456"/>
<path d="M47.8394 236.66C47.8394 259.271 47.8394 281.882 47.8394 305.178C26.39 305.178 26.39 305.178 20.4914 300.619C13.3284 291.465 12.885 283.571 13.0091 272.366C13.0328 269.819 13.0093 267.276 12.9811 264.729C12.9623 254.751 13.2912 247.025 20.6295 239.492C28.5427 234.781 39.3041 236.66 47.8394 236.66Z" fill="#105E4A"/>
<path d="M118.419 147.836C119.194 147.973 119.969 148.11 120.768 148.251C118.926 150.093 117.084 151.934 115.243 153.776C113.807 155.315 113.807 155.315 112.342 156.884C109.718 159.302 109.718 159.302 106.403 159.302C108.469 153.93 112.558 148.601 118.419 147.836Z" fill="#1F5E4C"/>
<path d="M152.812 147.146C157.712 148.686 160.407 151.13 163.861 154.881C159.521 154.881 158.263 153.204 155.022 150.461C154.292 150.096 153.563 149.732 152.812 149.356C152.812 148.626 152.812 147.897 152.812 147.146Z" fill="#165643"/>
<path d="M346.182 375.906C350.131 378.868 353.164 381.902 356.126 385.852C353.546 385.661 352.047 385.076 350.183 383.275C346.182 378.589 346.182 378.589 346.182 375.906Z" fill="#52C95D"/>
<path d="M168.281 160.407C171.603 163.729 171.15 166.843 171.596 171.458C170.867 171.458 170.138 171.458 169.386 171.458C167.61 167.906 168.218 164.346 168.281 160.407Z" fill="#2F6756"/>
<path d="M20.2151 299.652C23.6659 300.189 26.8403 300.756 30.1599 301.863C30.1599 302.592 30.1599 303.321 30.1599 304.073C24.04 303.393 24.04 303.393 21.4582 301.241C21.048 300.717 20.6378 300.192 20.2151 299.652Z" fill="#296451"/>
<path d="M343.972 161.512C345.146 163.515 345.146 163.515 346.181 165.933C345.817 167.027 345.452 168.121 345.077 169.248C344.347 169.248 343.618 169.248 342.867 169.248C342.502 170.342 342.137 171.436 341.762 172.563C342.728 163.999 342.728 163.999 343.972 161.512Z" fill="#69D172"/>
</g>
<defs>
<clipPath id="clip0_638_12">
<rect width="489" height="410" fill="white" transform="translate(13 51)"/>
</clipPath>
</defs>
</svg>
